{"title":"The.Front.2010.DVDRip.XviD.Ac3.Feel-Free","uid":5823471,"size":1108159187,"categoryP":"video","categoryS":"movies","magnet":"?xt=urn:btih:def21fec70c9848789b6dabcc5e72017c73baa26&amp;dn=The.Front.2010.DVDRip.XviD.Ac3.Feel-Free&amp;tr=udp%3A%2F%2Ftracker.openbittorrent.com%3A80&amp;tr=udp%3A%2F%2Fopen.demonii.com%3A1337&amp;tr=udp%3A%2F%2Ftracker.coppersurfer.tk%3A6969&amp;tr=udp%3A%2F%2Fexodus.desync.com%3A6969","seeders":0,"leechers":0,"uploader":".BONE.","files":8,"time":1284161637,"description":"Genre:Crime | Mystery\nLanguage: English\nIMDB:http://www.imdb.com/title/tt1493246/\nSource:DVD\n\nGeneral\nComplete name :The.Front.2010.DVDRip.XviD.Ac3.Feel-Free\nFormat : AVI\nFormat/Info : Audio Video Interleave\nFile size : 1.03 GiB\nDuration : 1h 30mn\nOverall bit rate : 1 626 Kbps\nVideo #0\nCodec ID : XVID\nCodec ID/Hint : XviD\nDuration : 1h 30mn\nBit rate : 1 297 Kbps\nWidth : 576 pixels\nHeight : 320 pixels\nDisplay aspect ratio : 16:9\nFrame rate : 25.000 fps\nResolution : 24 bits\nColorimetry : 4:2:0\nScan type : Progressive\nBits/(Pixel*Frame) : 0.281\nStream size : 842 MiB (80%)\nWriting library : XviD 1.2.1 (UTC 2008-12-04)\nAudio #1\nID : 1\nFormat : AC-3\nFormat/Info : Audio Coding 3\nCodec ID : 2000\nDuration : 1h 30mn\nBit rate mode : Constant\nBit rate : 320 Kbps\nChannel(s) : 6 channels\nChannel positions : Front: L C R, Surround: L R, LFE\nSampling rate : 48.0 KHz\nStream size : 208 MiB (20%)\nAlignment : Split accross interleaves\nInterleave, duration : 40 ms (1.00 video frame)\nInterleave, preload duration : 500 ms\n\nPlot\nA detective in a Boston suburb is assigned by his female district attorney to reopen an old murder case, which throws his life into grave peril.","torrent":{"xt":"urn:btih:def21fec70c9848789b6dabcc5e72017c73baa26","amp;dn":"The.Front.2010.DVDRip.XviD.Ac3.Feel-Free","amp;tr":["udp%3A%2F%2Ftracker.openbittorrent.com%3A80","udp%3A%2F%2Fopen.demonii.com%3A1337","udp%3A%2F%2Ftracker.coppersurfer.tk%3A6969","udp%3A%2F%2Fexodus.desync.com%3A6969"],"infoHash":"def21fec70c9848789b6dabcc5e72017c73baa26","infoHashBuffer":{"type":"Buffer","data":[222,242,31,236,112,201,132,135,137,182,218,188,197,231,32,23,199,59,170,38]},"announce":[],"urlList":[]}}